<svg id="Capa_1" data-name="Capa 1" xmlns="http://www.w3.org/2000/svg" viewBox="0 0 189.74 56"><defs><style>.cls-1{fill:#1f140f;fill-rule:evenodd;}</style></defs><title>happy</title><path class="cls-1" d="M128.11,160a105,105,0,0,0,40.28-8.3,102.84,102.84,0,0,0,27.7-17.44,92.19,92.19,0,0,0,11.82-12.8,94.14,94.14,0,0,0,7.94-10.33c.79-1.23-1.12-2.57-1.91-1.33a94,94,0,0,1-9.24,11.73A107.26,107.26,0,0,1,193.05,131a113.72,113.72,0,0,1-27.66,14.21,122.53,122.53,0,0,1-17.74,4.7,116.82,116.82,0,0,1-19.54,1.79,117.61,117.61,0,0,1-19.54-1.79,123.36,123.36,0,0,1-17.7-4.7A114,114,0,0,1,63.2,131a104.21,104.21,0,0,1-11.64-9.47,90.42,90.42,0,0,1-9.24-11.73c-.79-1.24-2.74.1-1.91,1.33a90.48,90.48,0,0,0,7.93,10.33,88.16,88.16,0,0,0,11.83,12.8,102.21,102.21,0,0,0,27.7,17.44,104.54,104.54,0,0,0,40.24,8.3Zm-82.8-55.8c-7.49-1.13-12.05,2.58-12.05,9.06,0,1.27.93,2.06,1.64.55,1.69-3.53,5.81-6.72,10.45-8.13,1.38-.41,1.42-1.27,0-1.48Zm165.64,0c7.48-1.13,12.05,2.58,12.05,9.06,0,1.27-.94,2.06-1.65.55-1.68-3.53-5.84-6.72-10.44-8.13-1.42-.41-1.46-1.27,0-1.48Z" transform="translate(-33.26 -104.03)"/></svg>