<?xml version="1.0" standalone="no"?>
<!DOCTYPE svg PUBLIC "-//W3C//DTD SVG 20010904//EN"
 "http://www.w3.org/TR/2001/REC-SVG-20010904/DTD/svg10.dtd">
<svg version="1.0" xmlns="http://www.w3.org/2000/svg"
 width="256.000000pt" height="256.000000pt" viewBox="0 0 256.000000 256.000000"
 preserveAspectRatio="xMidYMid meet">

<g transform="translate(0.000000,256.000000) scale(0.100000,-0.100000)"
fill="#000000" stroke="none">
<path d="M84 2084 c-47 -49 -68 -127 -61 -222 8 -105 36 -156 111 -202 80 -48
97 -74 103 -151 4 -53 1 -72 -19 -109 -20 -39 -28 -45 -59 -48 -31 -3 -40 2
-58 26 -11 17 -26 53 -33 81 -11 47 -14 51 -41 51 l-30 0 7 -51 c17 -128 80
-219 153 -219 76 0 143 119 143 254 0 133 -35 204 -124 256 -30 16 -62 42 -71
57 -56 85 -3 238 71 205 25 -12 38 -35 48 -84 5 -23 12 -28 37 -28 l31 0 -7
48 c-23 155 -121 222 -201 136z"/>
<path d="M514 2101 c-94 -58 -164 -236 -164 -421 0 -403 280 -592 424 -287 57
122 75 247 56 386 -20 144 -84 277 -154 321 -43 26 -120 27 -162 1z m132 -97
c18 -9 47 -37 64 -62 82 -125 91 -331 19 -479 -40 -82 -77 -113 -136 -113 -42
0 -51 4 -89 44 -66 70 -88 137 -88 281 -1 133 14 199 62 270 28 40 81 75 115
75 11 0 34 -7 53 -16z"/>
<path d="M1050 2113 c-28 -10 -72 -58 -95 -103 -39 -78 -45 -135 -45 -450 l0
-300 30 0 30 0 0 290 c0 304 6 367 44 422 49 73 128 56 176 -37 25 -49 25 -50
28 -362 l3 -313 29 0 29 0 3 318 c3 305 4 319 25 359 66 123 167 106 207 -35
13 -48 16 -110 16 -350 l0 -292 31 0 30 0 -3 328 c-3 313 -5 329 -27 385 -71
178 -209 199 -288 44 l-25 -51 -25 52 c-32 68 -73 102 -121 101 -20 0 -44 -3
-52 -6z"/>
<path d="M1835 2101 c-103 -62 -165 -222 -165 -420 0 -167 42 -300 119 -381
124 -130 289 -28 346 212 20 84 19 267 0 343 -32 120 -92 217 -156 251 -39 20
-108 18 -144 -5z m160 -121 c119 -115 133 -402 29 -560 -56 -85 -150 -94 -212
-20 -7 8 -27 44 -44 79 -27 56 -32 78 -36 168 -6 125 9 204 52 276 61 102 142
124 211 57z"/>
<path d="M2286 2095 c-48 -44 -69 -109 -69 -206 1 -130 25 -173 133 -242 57
-37 80 -80 80 -151 0 -102 -50 -169 -106 -144 -29 13 -64 83 -64 126 0 29 -3
32 -31 32 l-32 0 5 -58 c7 -73 42 -155 80 -187 110 -93 236 84 207 290 -12 86
-40 139 -91 173 -23 15 -58 43 -80 63 -37 35 -38 39 -38 102 0 56 4 70 26 96
14 17 32 31 39 31 28 0 65 -42 71 -81 6 -35 10 -39 35 -39 25 0 29 4 29 28 0
52 -28 124 -61 158 -42 43 -93 47 -133 9z"/>
<path d="M544 827 c-21 -19 -27 -34 -31 -78 l-4 -54 24 51 c14 28 35 58 47 67
12 8 19 20 15 26 -9 16 -21 14 -51 -12z"/>
<path d="M1902 842 c-9 -6 -4 -16 19 -38 17 -16 40 -47 50 -69 l19 -40 0 33
c0 43 -23 98 -48 111 -24 13 -24 13 -40 3z"/>
<path d="M564 738 c3 -15 30 -84 60 -153 143 -334 315 -516 542 -572 223 -55
489 128 648 445 51 101 129 293 122 300 -8 8 -9 6 -45 -85 -47 -118 -123 -235
-214 -330 -122 -127 -235 -192 -368 -214 -252 -41 -555 190 -699 532 -38 92
-58 124 -46 77z"/>
</g>
</svg>
